{
  "accessors": [
    {
      "bufferView": 2,
      "componentType": 5126,
      "count": 1632,
      "max": [
        48.816463470458984,
        49.39706802368164,
        48.29185104370117
      ],
      "min": [
        -49.785404205322266,
        -49.7015266418457,
        -50.00189208984375
      ],
      "type": "VEC3"
    },
    {
      "bufferView": 2,
      "byteOffset": 19584,
      "componentType": 5126,
      "count": 1632,
      "max": [
        0.9999958872795105,
        0.9999986290931702,
        0.9999976754188538
      ],
      "min": [
        -0.9999697804450989,
        -0.9999940395355225,
        -0.9999984502792358
      ],
      "type": "VEC3"
    },
    {
      "bufferView": 3,
      "componentType": 5126,
      "count": 1632,
      "max": [
        0.9999405741691589,
        0.971753716468811,
        0.9999871253967285,
        1.0
      ],
      "min": [
        -0.9999998807907104,
        -0.9999300241470337,
        -0.9999150633811951,
        -1.0
      ],
      "type": "VEC4"
    },
    {
      "bufferView": 1,
      "componentType": 5126,
      "count": 1632,
      "max": [
        0.9969545006752014,
        0.9938637018203735
      ],
      "min": [
        0.0015466809272766113,
        0.04138505086302757
      ],
      "type": "VEC2"
    },
    {
      "bufferView": 0,
      "componentType": 5125,
      "count": 2448,
      "type": "SCALAR"
    }
  ],
  "asset": {
    "extras": {
      "author": "RedPandaFox (https://sketchfab.com/RedPandaFox)",
      "license": "CC-BY-4.0 (http://creativecommons.org/licenses/by/4.0/)",
      "source": "https://sketchfab.com/3d-models/caja-metalinspired-from-crash-bandicoot-2a8d221fa6884a78b121e34b0945a062",
      "title": "Caja Metal(Inspired from Crash Bandicoot)"
    },
    "generator": "Sketchfab-12.66.0",
    "version": "2.0"
  },
  "bufferViews": [
    {
      "buffer": 0,
      "byteLength": 9792,
      "name": "floatBufferViews",
      "target": 34963
    },
    {
      "buffer": 0,
      "byteLength": 13056,
      "byteOffset": 9792,
      "byteStride": 8,
      "name": "floatBufferViews",
      "target": 34962
    },
    {
      "buffer": 0,
      "byteLength": 39168,
      "byteOffset": 22848,
      "byteStride": 12,
      "name": "floatBufferViews",
      "target": 34962
    },
    {
      "buffer": 0,
      "byteLength": 26112,
      "byteOffset": 62016,
      "byteStride": 16,
      "name": "floatBufferViews",
      "target": 34962
    }
  ],
  "buffers": [
    {
      "byteLength": 88128,
      "uri": "scene.bin"
    }
  ],
  "images": [
    {
      "uri": "textures/lambert37_baseColor.png"
    },
    {
      "uri": "textures/lambert37_metallicRoughness.png"
    },
    {
      "uri": "textures/lambert37_normal.png"
    }
  ],
  "materials": [
    {
      "doubleSided": true,
      "name": "lambert37",
      "normalTexture": {
        "index": 2
      },
      "occlusionTexture": {
        "index": 1
      },
      "pbrMetallicRoughness": {
        "baseColorTexture": {
          "index": 0
        },
        "metallicRoughnessTexture": {
          "index": 1
        }
      }
    }
  ],
  "meshes": [
    {
      "name": "Caja_Metal_LP_lambert37_0",
      "primitives": [
        {
          "attributes": {
            "NORMAL": 1,
            "POSITION": 0,
            "TANGENT": 2,
            "TEXCOORD_0": 3
          },
          "indices": 4,
          "material": 0,
          "mode": 4
        }
      ]
    }
  ],
  "nodes": [
    {
      "children": [
        1
      ],
      "matrix": [
        1.0,
        0.0,
        0.0,
        0.0,
        0.0,
        2.220446049250313e-16,
        -1.0,
        0.0,
        0.0,
        1.0,
        2.220446049250313e-16,
        0.0,
        0.0,
        0.0,
        0.0,
        1.0
      ],
      "name": "Sketchfab_model"
    },
    {
      "children": [
        2
      ],
      "matrix": [
        1.0,
        0.0,
        0.0,
        0.0,
        0.0,
        0.0,
        1.0,
        0.0,
        0.0,
        -1.0,
        0.0,
        0.0,
        0.0,
        0.0,
        0.0,
        1.0
      ],
      "name": "c8457f66ae484263b6049be67e69ee5a.fbx"
    },
    {
      "children": [
        3
      ],
      "name": "RootNode"
    },
    {
      "children": [
        4
      ],
      "name": "Caja_Metal_LP"
    },
    {
      "mesh": 0,
      "name": "Caja_Metal_LP_lambert37_0"
    }
  ],
  "samplers": [
    {
      "magFilter": 9729,
      "minFilter": 9987,
      "wrapS": 10497,
      "wrapT": 10497
    }
  ],
  "scene": 0,
  "scenes": [
    {
      "name": "Sketchfab_Scene",
      "nodes": [
        0
      ]
    }
  ],
  "textures": [
    {
      "sampler": 0,
      "source": 0
    },
    {
      "sampler": 0,
      "source": 1
    },
    {
      "sampler": 0,
      "source": 2
    }
  ]
}
