{
  "accessors": [
    {
      "bufferView": 2,
      "componentType": 5126,
      "count": 99,
      "max": [
        0.91602998971939087,
        0.87847000360488892,
        0.82773000001907349
      ],
      "min": [
        -0.9569699764251709,
        -0.87847000360488892,
        -0.96170002222061157
      ],
      "type": "VEC3"
    },
    {
      "bufferView": 2,
      "byteOffset": 1188,
      "componentType": 5126,
      "count": 99,
      "max": [
        0.99997001886367798,
        1,
        0.99976640939712524
      ],
      "min": [
        -0.99892228841781616,
        -1,
        -0.99765622615814209
      ],
      "type": "VEC3"
    },
    {
      "bufferView": 3,
      "componentType": 5126,
      "count": 99,
      "max": [
        1,
        0.99891597032546997,
        0.88750094175338745,
        1
      ],
      "min": [
        -0.046141404658555984,
        -0.9999699592590332,
        -0.96653276681900024,
        -1
      ],
      "type": "VEC4"
    },
    {
      "bufferView": 1,
      "componentType": 5126,
      "count": 99,
      "max": [
        0.95525002479553223,
        0.90988999605178833
      ],
      "min": [
        0.0021500000730156898,
        -0.00067999999737367034
      ],
      "type": "VEC2"
    },
    {
      "bufferView": 0,
      "componentType": 5125,
      "count": 576,
      "max": [
        98
      ],
      "min": [
        0
      ],
      "type": "SCALAR"
    },
    {
      "bufferView": 2,
      "byteOffset": 2376,
      "componentType": 5126,
      "count": 99,
      "max": [
        1.3473199605941772,
        0.87847000360488892,
        4.3492298126220703
      ],
      "min": [
        -1.193850040435791,
        -0.87847000360488892,
        -0.87847000360488892
      ],
      "type": "VEC3"
    },
    {
      "bufferView": 2,
      "byteOffset": 3564,
      "componentType": 5126,
      "count": 99,
      "max": [
        0.99682390689849854,
        0.95492219924926758,
        0.99983012676239014
      ],
      "min": [
        -0.99829918146133423,
        -0.95651525259017944,
        -0.95400583744049072
      ],
      "type": "VEC3"
    },
    {
      "bufferView": 0,
      "byteOffset": 2304,
      "componentType": 5125,
      "count": 618,
      "max": [
        98
      ],
      "min": [
        0
      ],
      "type": "SCALAR"
    },
    {
      "bufferView": 2,
      "byteOffset": 4752,
      "componentType": 5126,
      "count": 9,
      "max": [
        1.9498300552368164,
        0.98124998807907104,
        -0.11088000237941742
      ],
      "min": [
        -1.7850699424743652,
        -1.2627400159835815,
        -1.8552900552749634
      ],
      "type": "VEC3"
    },
    {
      "bufferView": 2,
      "byteOffset": 4860,
      "componentType": 5126,
      "count": 9,
      "max": [
        0.47708269953727722,
        0.8619992733001709,
        0.9633018970489502
      ],
      "min": [
        -0.35454142093658447,
        -0.69583588838577271,
        0.50687956809997559
      ],
      "type": "VEC3"
    },
    {
      "bufferView": 0,
      "byteOffset": 4776,
      "componentType": 5125,
      "count": 24,
      "max": [
        8
      ],
      "min": [
        0
      ],
      "type": "SCALAR"
    },
    {
      "bufferView": 2,
      "byteOffset": 4968,
      "componentType": 5126,
      "count": 9,
      "max": [
        1.7999700307846069,
        0.85123997926712036,
        -0.44626998901367188
      ],
      "min": [
        -1.9342999458312988,
        -0.30581000447273254,
        -1.3490300178527832
      ],
      "type": "VEC3"
    },
    {
      "bufferView": 2,
      "byteOffset": 5076,
      "componentType": 5126,
      "count": 9,
      "max": [
        0.46968537569046021,
        0.73799455165863037,
        0.98595964908599854
      ],
      "min": [
        -0.43972226977348328,
        -0.34175717830657959,
        0.63813120126724243
      ],
      "type": "VEC3"
    },
    {
      "bufferView": 0,
      "byteOffset": 4872,
      "componentType": 5125,
      "count": 24,
      "max": [
        8
      ],
      "min": [
        0
      ],
      "type": "SCALAR"
    },
    {
      "bufferView": 2,
      "byteOffset": 5184,
      "componentType": 5126,
      "count": 9,
      "max": [
        1.8229000568389893,
        0.64763998985290527,
        -0.62915998697280884
      ],
      "min": [
        -0.78228998184204102,
        -0.21024000644683838,
        -1.3123999834060669
      ],
      "type": "VEC3"
    },
    {
      "bufferView": 2,
      "byteOffset": 5292,
      "componentType": 5126,
      "count": 9,
      "max": [
        0.29414835572242737,
        0.81661045551300049,
        0.98696732521057129
      ],
      "min": [
        -0.43511408567428589,
        -0.61542719602584839,
        0.56519109010696411
      ],
      "type": "VEC3"
    },
    {
      "bufferView": 0,
      "byteOffset": 4968,
      "componentType": 5125,
      "count": 24,
      "max": [
        8
      ],
      "min": [
        0
      ],
      "type": "SCALAR"
    }
  ],
  "asset": {
    "extras": {
      "author": "caseyhameljames (https://sketchfab.com/caseyhameljames)",
      "license": "CC-BY-4.0 (http://creativecommons.org/licenses/by/4.0/)",
      "source": "https://sketchfab.com/models/058451af54264f028c5c297e9d45eaa3",
      "title": "Wumpa Fruit"
    },
    "generator": "Sketchfab-3.20.7",
    "version": "2.0"
  },
  "bufferViews": [
    {
      "buffer": 0,
      "byteLength": 5064,
      "byteOffset": 0,
      "name": "floatBufferViews",
      "target": 34963
    },
    {
      "buffer": 0,
      "byteLength": 792,
      "byteOffset": 5064,
      "byteStride": 8,
      "name": "floatBufferViews",
      "target": 34962
    },
    {
      "buffer": 0,
      "byteLength": 5400,
      "byteOffset": 5856,
      "byteStride": 12,
      "name": "floatBufferViews",
      "target": 34962
    },
    {
      "buffer": 0,
      "byteLength": 1584,
      "byteOffset": 11256,
      "byteStride": 16,
      "name": "floatBufferViews",
      "target": 34962
    }
  ],
  "buffers": [
    {
      "byteLength": 12840,
      "uri": "scene.bin"
    }
  ],
  "images": [
    {
      "uri": "textures/Material_normal.png"
    },
    {
      "uri": "textures/Material_baseColor.png"
    }
  ],
  "materials": [
    {
      "doubleSided": true,
      "emissiveFactor": [
        0,
        0,
        0
      ],
      "name": "Material.004",
      "pbrMetallicRoughness": {
        "baseColorFactor": [
          0.49793493750000001,
          0.80000007149999997,
          0.054388091,
          1
        ],
        "metallicFactor": 0,
        "roughnessFactor": 0.59999999999999998
      }
    },
    {
      "doubleSided": true,
      "emissiveFactor": [
        0,
        0,
        0
      ],
      "name": "Material.003",
      "pbrMetallicRoughness": {
        "baseColorFactor": [
          0.50694286820000001,
          0.80000007149999997,
          0.059393189800000003,
          1
        ],
        "metallicFactor": 0,
        "roughnessFactor": 0.59999999999999998
      }
    },
    {
      "doubleSided": true,
      "emissiveFactor": [
        0,
        0,
        0
      ],
      "name": "Material.001",
      "pbrMetallicRoughness": {
        "baseColorFactor": [
          0.2395519465,
          0.044400069899999998,
          0,
          1
        ],
        "metallicFactor": 0,
        "roughnessFactor": 0.59999999999999998
      }
    },
    {
      "doubleSided": true,
      "emissiveFactor": [
        0,
        0,
        0
      ],
      "name": "Material",
      "normalTexture": {
        "index": 0,
        "scale": 0.0080000004000000003,
        "texCoord": 0
      },
      "pbrMetallicRoughness": {
        "baseColorFactor": [
          1,
          1,
          1,
          1
        ],
        "baseColorTexture": {
          "index": 1,
          "texCoord": 0
        },
        "metallicFactor": 0,
        "roughnessFactor": 0.59999999999999998
      }
    }
  ],
  "meshes": [
    {
      "name": "Cube_0",
      "primitives": [
        {
          "attributes": {
            "NORMAL": 1,
            "POSITION": 0,
            "TANGENT": 2,
            "TEXCOORD_0": 3
          },
          "indices": 4,
          "material": 3,
          "mode": 4
        }
      ]
    },
    {
      "name": "Cube.001_0",
      "primitives": [
        {
          "attributes": {
            "NORMAL": 6,
            "POSITION": 5
          },
          "indices": 7,
          "material": 2,
          "mode": 4
        }
      ]
    },
    {
      "name": "Plane_0",
      "primitives": [
        {
          "attributes": {
            "NORMAL": 9,
            "POSITION": 8
          },
          "indices": 10,
          "material": 1,
          "mode": 4
        }
      ]
    },
    {
      "name": "Plane.001_0",
      "primitives": [
        {
          "attributes": {
            "NORMAL": 12,
            "POSITION": 11
          },
          "indices": 13,
          "material": 0,
          "mode": 4
        }
      ]
    },
    {
      "name": "Plane.002_0",
      "primitives": [
        {
          "attributes": {
            "NORMAL": 15,
            "POSITION": 14
          },
          "indices": 16,
          "material": 0,
          "mode": 4
        }
      ]
    }
  ],
  "nodes": [
    {
      "children": [
        1
      ],
      "name": "RootNode (gltf orientation matrix)",
      "rotation": [
        -0.70710678118654746,
        -0,
        -0,
        0.70710678118654757
      ]
    },
    {
      "children": [
        2
      ],
      "name": "RootNode (model correction matrix)"
    },
    {
      "children": [
        3,
        5,
        7,
        9,
        11,
        13,
        15,
        17
      ],
      "name": "Root"
    },
    {
      "children": [
        4
      ],
      "matrix": [
        -0.29086000000000006,
        0.95517000000000007,
        -0.05519000000000001,
        0,
        -0.77110000000000001,
        -0.19988000000000003,
        0.60452000000000006,
        0,
        0.56639000000000006,
        0.21839000000000003,
        0.7946700000000001,
        0,
        0.43399000000000004,
        -10.753530000000001,
        -4.2991099999999998,
        1
      ],
      "name": "Lamp"
    },
    {
      "name": "Lamp"
    },
    {
      "children": [
        6
      ],
      "matrix": [
        2.8029199999999999,
        0,
        0,
        0,
        0,
        2.8029199999999999,
        0,
        0,
        0,
        0,
        2.8029199999999999,
        0,
        0.37036000000000008,
        0,
        -0.26002000000000003,
        1
      ],
      "name": "Cube"
    },
    {
      "mesh": 0,
      "name": "Cube_0"
    },
    {
      "children": [
        8
      ],
      "matrix": [
        0.21208000000000002,
        0,
        -0.024350000000000007,
        0,
        -0,
        0.21348000000000003,
        0,
        0,
        0.024350000000000007,
        0,
        0.21208000000000002,
        0,
        0.36074000000000001,
        -0.072570000000000009,
        2.0034399999999999,
        1
      ],
      "name": "Cube.001"
    },
    {
      "mesh": 1,
      "name": "Cube.001_0"
    },
    {
      "children": [
        10
      ],
      "matrix": [
        1,
        0,
        0,
        0,
        0,
        1,
        0,
        0,
        0,
        0,
        1,
        0,
        -1.1981300000000001,
        -0.32619000000000004,
        2.9342399999999995,
        1
      ],
      "name": "Plane"
    },
    {
      "mesh": 2,
      "name": "Plane_0"
    },
    {
      "children": [
        12
      ],
      "matrix": [
        -0.97284000000000004,
        -0.11954000000000002,
        0.19824000000000006,
        0,
        0.12670000000000001,
        -0.99165999999999999,
        0.023780000000000006,
        0,
        0.19374000000000005,
        0.048250000000000008,
        0.97987000000000002,
        0,
        2.1975300000000004,
        0.34910000000000008,
        2.7741100000000003,
        1
      ],
      "name": "Plane.001"
    },
    {
      "mesh": 3,
      "name": "Plane.001_0"
    },
    {
      "children": [
        14
      ],
      "matrix": [
        0.20598000000000002,
        -0.78647,
        -0.27430000000000004,
        0,
        0.78052999999999995,
        0.083620000000000028,
        0.34638000000000013,
        0,
        -0.29077000000000003,
        -0.33268000000000009,
        0.73551,
        0,
        -0.28942000000000007,
        0.92707000000000006,
        3.2102900000000001,
        1
      ],
      "name": "Plane.002"
    },
    {
      "mesh": 4,
      "name": "Plane.002_0"
    },
    {
      "children": [
        16
      ],
      "matrix": [
        -0.29086000000000006,
        0.95517000000000007,
        -0.05519000000000001,
        0,
        -0.77110000000000001,
        -0.19988000000000003,
        0.60452000000000006,
        0,
        0.56639000000000006,
        0.21839000000000003,
        0.7946700000000001,
        0,
        -3.94136,
        -8.0956100000000006,
        6.5634600000000001,
        1
      ],
      "name": "Lamp.001"
    },
    {
      "name": "Lamp.001"
    },
    {
      "children": [
        18
      ],
      "matrix": [
        -0.29086000000000006,
        0.95517000000000007,
        -0.05519000000000001,
        0,
        -0.77110000000000001,
        -0.19988000000000003,
        0.60452000000000006,
        0,
        0.56639000000000006,
        0.21839000000000003,
        0.7946700000000001,
        0,
        6.2474699999999999,
        -3.7707000000000002,
        2.7004100000000002,
        1
      ],
      "name": "Lamp.002"
    },
    {
      "name": "Lamp.002"
    }
  ],
  "samplers": [
    {
      "magFilter": 9729,
      "minFilter": 9987,
      "wrapS": 10497,
      "wrapT": 10497
    }
  ],
  "scene": 0,
  "scenes": [
    {
      "name": "OSG_Scene",
      "nodes": [
        0
      ]
    }
  ],
  "textures": [
    {
      "sampler": 0,
      "source": 0
    },
    {
      "sampler": 0,
      "source": 1
    }
  ]
}

